<svg width="166" height="166" xmlns="http://www.w3.org/2000/svg" viewBox="0 0 74.08 91.79">
<path fill="#f4961b" d="M74.08 4.31v63.51l-3.33-.87c-.54 0-.98-.4-.98-.9V8.12l-9.61-.98-48.19-4.92.51.66 1.12.23 17.32 3.54 31.81 6.5v11.38h2.45v21.24h-2.45v30.32l-1.96-.52V45.76h-2.46V24.52h2.46v-9.94L21.11 6.49l-6.92-1.42-3.59-.74-2.94-.6.71 1.09 1.4.42 3.65 1.11 2.32.69 38.88 11.74v36.28h2.45v25.98h-2.45v5.09h-.03l-1.94-.52v-4.57H50.2V55.06h2.45V20.09L17.67 9.53 10.1 7.24l-.22-.06-3.1-.93-3.56-1.08.56 1.02.08.16 4.51 1.68 3.56 1.31 7.85 2.91 26.23 9.72v69.81L4.07 78.97c-2.45-.75-4.09-2.84-4.09-5.19V8.24c0-1.59.75-3.09 2.06-4.13.24-.19 1.15-.83 1.15-.83C7.77.25 13.48-.34 19.21.16l54.87 4.15Z"/>
</svg>
