<!--<svg xmlns="http://www.w3.org/2000/svg" viewBox="0 0 74.08 91.79">-->
<!--    <path fill="#f4961b" d="M74.08 4.31v63.51l-3.33-.87c-.54 0-.98-.4-.98-.9V8.12l-9.61-.98-48.19-4.92.51.66 1.12.23 17.32 3.54 31.81 6.5v11.38h2.45v21.24h-2.45v30.32l-1.96-.52V45.76h-2.46V24.52h2.46v-9.94L21.11 6.49l-6.92-1.42-3.59-.74-2.94-.6.71 1.09 1.4.42 3.65 1.11 2.32.69 38.88 11.74v36.28h2.45v25.98h-2.45v5.09h-.03l-1.94-.52v-4.57H50.2V55.06h2.45V20.09L17.67 9.53 10.1 7.24l-.22-.06-3.1-.93-3.56-1.08.56 1.02.08.16 4.51 1.68 3.56 1.31 7.85 2.91 26.23 9.72v69.81L4.07 78.97c-2.45-.75-4.09-2.84-4.09-5.19V8.24c0-1.59.75-3.09 2.06-4.13.24-.19 1.15-.83 1.15-.83C7.77.25 13.48-.34 19.21.16l54.87 4.15Z"/>-->
<!--</svg>-->

<svg xmlns="http://www.w3.org/2000/svg" fill="currentColor" viewBox="0 0 224.61 91.79">
    <path fill="#f4961b" d="M74.08 4.31v63.51l-3.33-.87c-.54 0-.98-.4-.98-.9V8.12l-9.61-.98-48.19-4.92.51.66 1.12.23 17.32 3.54 31.81 6.5v11.38h2.45v21.24h-2.45v30.32l-1.96-.52V45.76h-2.46V24.52h2.46v-9.94L21.11 6.49l-6.92-1.42-3.59-.74-2.94-.6.71 1.09 1.4.42 3.65 1.11 2.32.69 38.88 11.74v36.28h2.45v25.98h-2.45v5.09h-.03l-1.94-.52v-4.57H50.2V55.06h2.45V20.09L17.67 9.53 10.1 7.24l-.22-.06-3.1-.93-3.56-1.08.56 1.02.08.16 4.51 1.68 3.56 1.31 7.85 2.91 26.23 9.72v69.81L4.07 78.97c-2.45-.75-4.09-2.84-4.09-5.19V8.24c0-1.59.75-3.09 2.06-4.13.24-.19 1.15-.83 1.15-.83C7.77.25 13.48-.34 19.21.16l54.87 4.15Z"/>
    <path d="M113.84 21.4h-8.15v20.39h-4.56V21.4h-8.14v-3.8h20.85v3.8zm13.8 3.01v3.76c-2.2.04-6.6.67-6.6 5.32v8.3h-4.36V24.67h4.36v3.09c1.55-2.34 4.07-3.31 6.6-3.35m21.06.26v17.12h-4.36V39.6c-1.3 1.52-3.3 2.49-5.9 2.49-5.21 0-9-3.76-9-8.86s3.79-8.82 9-8.82c2.61 0 4.6.93 5.9 2.49v-2.23h4.36Zm-4.36 8.56c0-2.94-2.08-5.06-5.29-5.06s-5.33 2.12-5.33 5.06 2.12 5.1 5.33 5.1 5.29-2.16 5.29-5.1m27.65-15.63v24.19h-4.36V39.6c-1.3 1.52-3.3 2.49-5.9 2.49-5.21 0-9-3.76-9-8.86s3.79-8.82 9-8.82c2.61 0 4.6.93 5.9 2.49v-9.3h4.36Zm-4.35 15.63c0-2.94-2.08-5.06-5.29-5.06s-5.33 2.12-5.33 5.06 2.12 5.1 5.33 5.1 5.29-2.16 5.29-5.1m26.71 0v1.12h-14.09c.45 2.68 2.52 4.35 5.29 4.35 2.61 0 4.11-1.08 4.89-2.08l3.01 2.01c-1.63 2.16-4.48 3.5-7.9 3.5-5.7 0-9.53-3.8-9.53-8.89s3.66-8.86 9.32-8.86 9 3.76 9 8.86m-14.04-1.46h9.98c-.49-2.42-2.16-4.24-4.93-4.24s-4.56 1.67-5.05 4.24m29.04-7.37v3.76c-2.2.04-6.6.67-6.6 5.32v8.3h-4.36V24.67h4.36v3.09c1.55-2.34 4.07-3.31 6.6-3.35M97.51 56.25v6.81h12.46v3.9H97.51v9.57h-4.52V52.34h17.75v3.91H97.51zm34.86 3.16v17.12h-4.36v-2.19c-1.3 1.52-3.3 2.49-5.9 2.49-5.21 0-9-3.76-9-8.86s3.79-8.82 9-8.82c2.61 0 4.6.93 5.9 2.49v-2.23h4.36Zm-4.36 8.56c0-2.94-2.08-5.06-5.29-5.06s-5.33 2.12-5.33 5.06 2.12 5.1 5.33 5.1 5.29-2.16 5.29-5.1m18.08-5.06c-3.22 0-5.42 2.12-5.42 5.06s2.2 5.1 5.42 5.1c2.24 0 3.54-.89 4.36-1.86l3.14 2.16c-1.63 2.16-4.32 3.5-7.61 3.5-5.66 0-9.57-3.72-9.57-8.89s3.91-8.86 9.57-8.86c3.3 0 5.98 1.34 7.61 3.46l-3.14 2.23c-.77-.93-2.12-1.9-4.36-1.9m16.78-.45v8.78c0 1.93 1.3 2.16 2.52 2.16h1.43v3.13h-3.18c-3.46 0-5.17-1.67-5.17-4.65v-9.41h-2.48v-3.05h2.48v-5.25h4.4v5.25h4.15v3.05h-4.15Zm6.48 5.51c0-5.17 3.99-8.89 9.65-8.89s9.61 3.72 9.61 8.89-3.95 8.89-9.61 8.89-9.65-3.79-9.65-8.89m14.9 0c0-2.9-2.08-5.06-5.25-5.06s-5.29 2.16-5.29 5.06 2.12 5.1 5.29 5.1 5.25-2.2 5.25-5.1m19.35-8.82v3.76c-2.2.04-6.6.67-6.6 5.32v8.3h-4.36V59.41H197v3.09c1.55-2.34 4.07-3.31 6.6-3.35m21.01.26-10.42 23.96h-4.28l2.97-6.84-7.37-17.12h4.52L215 70.98l5.05-11.57h4.56z"/>
    <path d="m13.6 3.11-1.12-.23-.51-.66c-7.72.2-8.91 1.8-8.75 2.95l3.56 1.08 3.1.93.21.06c-.38-.65-.59-1.37-.33-1.99l-1.4-.42-.71-1.09 2.94.6c.81-.58 1.95-.97 3-1.22Z"/>
</svg>

